HIERARCHY
ROOT Hips
{
	OFFSET 0.00000 0.00000 0.00000
	CHANNELS 6 Xposition Yposition Zposition Zrotation Yrotation Xrotation 
	JOINT LHipJoint
	{
		OFFSET 0 0 0
		CHANNELS 3 Zrotation Yrotation Xrotation
		JOINT LeftUpLeg
		{
			OFFSET 1.42489 -1.84941 0.69647
			CHANNELS 3 Zrotation Yrotation Xrotation
			JOINT LeftLeg
			{
				OFFSET 2.44443 -6.71602 0.00000
				CHANNELS 3 Zrotation Yrotation Xrotation
				JOINT LeftFoot
				{
					OFFSET 2.62838 -7.22137 0.00000
					CHANNELS 3 Zrotation Yrotation Xrotation
					JOINT LeftToeBase
					{
						OFFSET 0.24036 -0.66037 2.29953
						CHANNELS 3 Zrotation Yrotation Xrotation
						End Site
						{
							OFFSET 0.00000 -0.00000 1.19837
						}
					}
				}
			}
		}
	}
	JOINT RHipJoint
	{
		OFFSET 0 0 0
		CHANNELS 3 Zrotation Yrotation Xrotation
		JOINT RightUpLeg
		{
			OFFSET -1.37055 -1.84941 0.69647
			CHANNELS 3 Zrotation Yrotation Xrotation
			JOINT RightLeg
			{
				OFFSET -2.54834 -7.00152 0.00000
				CHANNELS 3 Zrotation Yrotation Xrotation
				JOINT RightFoot
				{
					OFFSET -2.65692 -7.29983 0.00000
					CHANNELS 3 Zrotation Yrotation Xrotation
					JOINT RightToeBase
					{
						OFFSET -0.18839 -0.51760 2.29390
						CHANNELS 3 Zrotation Yrotation Xrotation
						End Site
						{
							OFFSET -0.00000 -0.00000 1.18261
						}
					}
				}
			}
		}
	}
	JOINT LowerBack
	{
		OFFSET 0 0 0
		CHANNELS 3 Zrotation Yrotation Xrotation
		JOINT Spine
		{
			OFFSET 0.05220 2.15489 0.05011
			CHANNELS 3 Zrotation Yrotation Xrotation
			JOINT Spine1
			{
				OFFSET -0.07653 2.14219 -0.05668
				CHANNELS 3 Zrotation Yrotation Xrotation
				JOINT Neck
				{
					OFFSET 0 0 0
					CHANNELS 3 Zrotation Yrotation Xrotation
					JOINT Neck1
					{
						OFFSET 0.01370 1.58638 0.01447
						CHANNELS 3 Zrotation Yrotation Xrotation
						JOINT Head
						{
							OFFSET 0.23548 1.54190 -0.21747
							CHANNELS 3 Zrotation Yrotation Xrotation
							End Site
							{
								OFFSET 0.07132 1.59823 -0.08163
							}
						}
					}
				}
				JOINT LeftShoulder
				{
					OFFSET 0 0 0
					CHANNELS 3 Zrotation Yrotation Xrotation
					JOINT LeftArm
					{
						OFFSET 3.47056 1.45357 -0.58896
						CHANNELS 3 Zrotation Yrotation Xrotation
						JOINT LeftForeArm
						{
							OFFSET 5.19069 -0.00000 0.00000
							CHANNELS 3 Zrotation Yrotation Xrotation
							JOINT LeftHand
							{
								OFFSET 3.30016 -0.00000 0.00000
								CHANNELS 3 Zrotation Yrotation Xrotation
								JOINT LeftFingerBase
								{
									OFFSET 0 0 0
									CHANNELS 3 Zrotation Yrotation Xrotation
									JOINT LeftHandIndex1
									{
										OFFSET 0.70770 -0.00000 0.00000
										CHANNELS 3 Zrotation Yrotation Xrotation
										End Site
										{
											OFFSET 0.57056 -0.00000 0.00000
										}
									}
								}
								JOINT LThumb
								{
									OFFSET 0 0 0
									CHANNELS 3 Zrotation Yrotation Xrotation
									End Site
									{
										OFFSET 0.57928 -0.00000 0.57928
									}
								}
							}
						}
					}
				}
				JOINT RightShoulder
				{
					OFFSET 0 0 0
					CHANNELS 3 Zrotation Yrotation Xrotation
					JOINT RightArm
					{
						OFFSET -2.89018 2.03305 -0.26731
						CHANNELS 3 Zrotation Yrotation Xrotation
						JOINT RightForeArm
						{
							OFFSET -5.23924 -0.00000 0.00000
							CHANNELS 3 Zrotation Yrotation Xrotation
							JOINT RightHand
							{
								OFFSET -3.32953 -0.00000 0.00000
								CHANNELS 3 Zrotation Yrotation Xrotation
								JOINT RightFingerBase
								{
									OFFSET 0 0 0
									CHANNELS 3 Zrotation Yrotation Xrotation
									JOINT RightHandIndex1
									{
										OFFSET -0.60741 -0.00000 0.00000
										CHANNELS 3 Zrotation Yrotation Xrotation
										End Site
										{
											OFFSET -0.48971 -0.00000 0.00000
										}
									}
								}
								JOINT RThumb
								{
									OFFSET 0 0 0
									CHANNELS 3 Zrotation Yrotation Xrotation
									End Site
									{
										OFFSET -0.49719 -0.00000 0.49719
									}
								}
							}
						}
					}
				}
			}
		}
	}
}
MOTION
Frames: 7
Frame Time: .0083333
-5.7144 17.4402 -28.274 0 0 0 0 0 0 -21 0 0 0 0 0 0 0 0 0 0 0 0 0 0 21 0 0 0 0 0 0 0 0 0 0 0 0 0 0 0 0 0 0 0 0 0 0 -16 0 0 21 0 0 11 0 0 0 -8 0 0 0 0 0 0 0 0 0 0 0 0 0 0 0 0 0 0 0 0 8 0 0 0 0 0 0 0 0 0 0 0 0 0 0 0 0 0
-5.7144 17.4402 -28.2740 -0.7313 -5.5622 2.8099 0.0000 0.0000 0.0000 -14.4556 10.4189 -25.5068 6.6241 15.0070 47.4379 0.9853 -4.9034 -17.7606 1.5927 -7.9604 -22.5939 0.0000 0.0000 0.0000 16.3934 0.3394 -18.0120 -4.7976 -13.1522 39.9409 -2.1442 -3.3319 -29.0151 -0.1278 2.3041 -6.3470 2.0943 -1.6047 1.4034 0.2491 -2.1713 4.3065 -0.9519 -1.0200 3.5759 -10.4910 -8.6155 1.7076 17.7886 -11.0156 -7.9634 7.1235 -5.7759 -0.9454 -0.0000 0.0000 0.0000 -86.1387 4.0068 5.3733 9.7957 -16.4194 -1.4167 -0.0000 -0.0000 0.9417 2.4888 -12.5903 -0.5428 -7.1250 0.0000 -0.0000 -17.0441 17.6808 11.5884 -0.0000 0.0000 0.0000 79.7766 1.0391 24.7453 -13.7312 22.3491 -2.7251 0.0000 0.0000 3.0011 -4.0703 -6.4635 0.4590 7.1250 -0.0000 -0.0000 18.8345 -35.8787 4.4199
-5.7209 17.4380 -28.2777 -0.7026 -5.4471 2.8400 0.0000 0.0000 0.0000 -14.6951 10.1832 -24.8414 6.3144 14.7262 46.2307 1.0647 -3.7076 -18.6173 1.4907 -7.7132 -21.8464 0.0000 0.0000 0.0000 16.3913 0.3233 -18.0806 -4.8121 -13.1690 40.0044 -2.1495 -3.3921 -29.0753 -0.1292 2.3169 -6.3823 2.1016 -1.6377 1.1201 0.2436 -2.2238 4.3679 -0.9726 -1.0428 3.7978 -10.3587 -8.6359 1.5140 17.8592 -11.0097 -8.0764 7.1180 -5.7734 -0.9489 -0.0000 -0.0000 0.0000 -86.1228 3.9032 5.1071 9.7170 -16.2957 -1.3945 -0.0000 -0.0000 1.1108 2.5085 -12.5371 -0.5449 -7.1250 0.0000 -0.0000 -17.0355 17.7311 11.5620 -0.0000 -0.0000 0.0000 79.7761 1.1727 24.9012 -14.0191 22.7620 -2.8355 0.0000 0.0000 2.6186 -3.8578 -6.7910 0.4569 7.1250 -0.0000 -0.0000 19.0849 -36.1761 4.3381
-5.7246 17.4372 -28.2732 -0.6805 -5.5766 2.7619 0.0000 0.0000 0.0000 -14.9008 10.1186 -24.0241 5.9884 14.4170 44.9350 1.1379 -3.2514 -19.3436 1.2486 -7.0846 -19.9662 0.0000 0.0000 0.0000 16.3670 0.3854 -18.0033 -4.8269 -13.1862 40.0696 -2.1603 -3.3105 -29.1082 -0.1257 2.2856 -6.2955 2.1140 -1.5848 0.9654 0.2160 -2.1588 4.4672 -1.0134 -1.0065 3.9893 -10.1481 -8.6869 1.1739 17.8908 -11.0388 -8.1526 7.0772 -5.7825 -0.9196 0.0000 -0.0000 0.0000 -86.0490 3.7050 4.8898 9.5839 -16.0861 -1.3574 -0.0000 -0.0000 1.3034 2.5977 -12.5158 -0.5633 -7.1250 0.0000 -0.0000 -16.9775 17.7489 11.5119 0.0000 -0.0000 0.0000 79.7960 1.2876 24.9778 -14.3239 23.1959 -2.9545 0.0000 0.0000 2.3400 -3.5166 -6.9343 0.4251 7.1250 -0.0000 -0.0000 19.3949 -36.2902 4.3585
-5.7305 17.4345 -28.2774 -0.5951 -5.4150 2.8204 0.0000 0.0000 0.0000 -15.1636 9.7833 -23.3999 5.6772 14.1081 43.6722 1.1953 -3.0622 -19.8780 1.0384 -6.4811 -18.1868 0.0000 0.0000 0.0000 16.3050 0.3751 -18.1063 -4.8421 -13.2037 40.1359 -2.1707 -3.3560 -29.1942 -0.1187 2.2212 -6.1174 1.9499 -1.6762 0.8266 0.2706 -2.2819 4.3713 -0.8712 -1.0755 3.9720 -10.1844 -8.6423 1.2807 17.9181 -10.9765 -8.2294 7.1027 -5.7575 -0.9644 -0.0000 0.0000 0.0000 -86.1565 3.8070 4.4864 9.5052 -15.9619 -1.3356 -0.0000 -0.0000 1.5721 2.6780 -12.3635 -0.5738 -7.1250 0.0000 -0.0000 -16.9368 17.8924 11.4254 -0.0000 0.0000 0.0000 79.6765 1.1826 25.2440 -14.6631 23.6746 -3.0894 0.0000 0.0000 2.0765 -3.0302 -7.0353 0.3715 7.1250 -0.0000 -0.0000 19.8112 -36.3547 4.4287
-5.7347 17.4340 -28.2784 -0.5389 -5.4193 2.7709 0.0000 0.0000 0.0000 -15.3762 9.5817 -22.6376 5.3859 13.8056 42.4643 1.2500 -2.8833 -20.3788 0.8758 -5.9663 -16.6867 0.0000 0.0000 0.0000 16.2605 0.4223 -18.0758 -4.8570 -13.2209 40.2012 -2.1743 -3.4260 -29.2483 -0.1264 2.2914 -6.3117 1.7429 -1.7691 0.7974 0.3832 -2.4050 4.2438 -0.6415 -1.1481 3.8651 -10.3889 -8.5246 1.6042 17.9879 -10.8247 -8.3941 7.1869 -5.6954 -1.0708 0.0000 -0.0000 0.0000 -86.3891 4.0913 4.0400 9.4582 -15.8877 -1.3228 -0.0000 -0.0000 1.7620 2.7550 -12.2754 -0.5862 -7.1250 0.0000 -0.0000 -16.8927 17.9746 11.3606 0.0000 -0.0000 0.0000 79.4010 0.9044 25.8193 -15.0770 24.2533 -3.2575 0.0000 0.0000 1.6797 -2.5501 -7.1922 0.3195 7.1250 -0.0000 -0.0000 20.2371 -36.4713 4.4730
-5.7367 17.4329 -28.2758 -0.4879 -5.5319 2.6114 0.0000 0.0000 0.0000 -15.5711 9.5111 -21.7590 5.1255 13.5238 41.3621 1.3118 -2.5045 -20.9741 0.7655 -5.5872 -15.5913 0.0000 0.0000 0.0000 16.2058 0.4830 -17.9164 -4.8747 -13.2412 40.2784 -2.1875 -3.3827 -29.3127 -0.1228 2.2594 -6.2230 1.6238 -1.7888 0.8204 0.4147 -2.4298 4.2198 -0.5419 -1.1656 3.8327 -10.4586 -8.4424 1.5731 18.1115 -10.7023 -8.4458 7.2418 -5.6361 -1.0853 -0.0000 -0.0000 0.0000 -86.4506 4.1869 3.7086 9.3764 -15.7583 -1.3005 -0.0000 -0.0000 1.9788 2.7333 -12.3642 -0.5857 -7.1250 0.0000 -0.0000 -16.8995 17.8902 11.3987 -0.0000 -0.0000 0.0000 79.3102 0.7537 26.1032 -15.4595 24.7823 -3.4162 0.0000 0.0000 1.4473 -2.2671 -7.5076 0.2964 7.1250 -0.0000 -0.0000 20.5474 -36.7484 4.4012
